<svg id="Capa_1" data-name="Capa 1" xmlns="http://www.w3.org/2000/svg" viewBox="0 0 360 144"><defs><style>.cls-1{fill:#1e1e1c;}.cls-2{fill:#e30613;}.cls-3{fill:#575756;}</style></defs><title>Mesa de trabajo 1</title><path class="cls-1" d="M66,86.18a8.76,8.76,0,1,1,0,.33Zm8.74-13.91A14,14,0,0,0,66,75.33V57.43H60.66V86.25s0,.06,0,.1,0,.06,0,.09v1.3h.06a14.08,14.08,0,1,0,14-15.47"/><path class="cls-1" d="M153.89,95a8.64,8.64,0,1,1,8.64-8.64A8.65,8.65,0,0,1,153.89,95m8.66-20.91v1.31a14,14,0,1,0,0,21.92v3.12H168V74.07Z"/><path class="cls-1" d="M186,95.1c-4.77,0-8.43-3.58-8.74-8.59,0-.12,0,.12,0,0l0-11.2,0,0V57.43H172V86.25s0,.06,0,.1,0,.06,0,.09v1.3c0,7.33,6.78,12.69,14.07,12.69.27,0,.52,0,.78,0V95.06c-.26,0-.51,0-.78,0"/><path class="cls-1" d="M123.35,100.38h5.37V97.6a0,0,0,0,0,0,0V87c0-.12,0-.24,0-.36v-.33a8.56,8.56,0,0,1,8.79-8.64,6.85,6.85,0,0,1,.79,0V72.38c-.26,0-.52,0-.79,0-7.34,0-14.16,5.79-14.16,12.78v1.3s0,.06,0,.1,0,.06,0,.09Z"/><path class="cls-1" d="M106.08,77.72a8.67,8.67,0,0,1,8.49,7h-17a8.68,8.68,0,0,1,8.5-7m14,8.75v-.09c0-.19,0-.38,0-.57a.92.92,0,0,1,0-.16c0-.26,0-.51,0-.77v-.19h0c0-.1,0-.19,0-.29s0-.43-.09-.64l0-.1a14,14,0,1,0-5.08,13.73l-3.5-4.07a8.64,8.64,0,0,1-13.38-4.18H120a25.79,25.79,0,0,0,.08-2.67"/><path class="cls-2" d="M215.81,52.14c0-4.18-8.23-8.21-13.35-10.3V50.6c3.26,1.34,7.78,3.45,10.63,5.89,1.63-1.36,2.72-2.84,2.72-4.35"/><path class="cls-2" d="M213.09,56.49c-4.88,4.08-14.62,7.12-14.62,7.12v8.76S215.81,67,215.81,60.9c0-1.52-1.09-3-2.72-4.41"/><path class="cls-3" d="M199.8,100a2.61,2.61,0,0,1-1-1.11,3.6,3.6,0,0,1-.36-1.66,3.7,3.7,0,0,1,.36-1.67,2.77,2.77,0,0,1,1-1.13,3.12,3.12,0,0,1,1.58-.4,3.31,3.31,0,0,1,1.2.22,2.58,2.58,0,0,1,1,.58l-.33.74a3.17,3.17,0,0,0-.89-.54,2.46,2.46,0,0,0-.88-.17,1.81,1.81,0,0,0-1.47.63,3.06,3.06,0,0,0,0,3.46,1.84,1.84,0,0,0,1.48.62,2.46,2.46,0,0,0,.88-.17,3.17,3.17,0,0,0,.89-.54l.33.73a2.63,2.63,0,0,1-1,.58,3.6,3.6,0,0,1-1.22.21,3.1,3.1,0,0,1-1.55-.38"/><path class="cls-3" d="M209.35,98.94a2.78,2.78,0,0,0,.48-1.76,2.71,2.71,0,0,0-.49-1.74,1.9,1.9,0,0,0-2.79,0,3.34,3.34,0,0,0,0,3.5,1.95,1.95,0,0,0,2.81,0m-2.92,1a2.61,2.61,0,0,1-1-1.11,4.1,4.1,0,0,1,0-3.36,2.61,2.61,0,0,1,1-1.11A2.89,2.89,0,0,1,208,94a2.94,2.94,0,0,1,1.52.39,2.59,2.59,0,0,1,1,1.11,4.1,4.1,0,0,1,0,3.36,2.59,2.59,0,0,1-1,1.11,3,3,0,0,1-1.52.38,3,3,0,0,1-1.52-.38"/><path class="cls-3" d="M218.24,96.42v3.85h-1v-3.8a1.94,1.94,0,0,0-.34-1.25,1.36,1.36,0,0,0-1.07-.39,1.82,1.82,0,0,0-1.37.52,1.94,1.94,0,0,0-.51,1.41v3.51h-1v-4.4a14.79,14.79,0,0,0-.09-1.72h.93l.1,1.09a2.06,2.06,0,0,1,.84-.91A2.49,2.49,0,0,1,216,94c1.47,0,2.2.81,2.2,2.42"/><path class="cls-3" d="M220.34,99.56l.33-.73a3.18,3.18,0,0,0,1,.56,3.41,3.41,0,0,0,1.14.17,2,2,0,0,0,1.05-.23.84.84,0,0,0,.12-1.28,1.82,1.82,0,0,0-.81-.34l-1-.24a2.29,2.29,0,0,1-1.19-.61,1.45,1.45,0,0,1-.42-1,1.58,1.58,0,0,1,.65-1.31,2.67,2.67,0,0,1,1.7-.51,3.51,3.51,0,0,1,1.22.21,2.73,2.73,0,0,1,1,.59l-.33.72a2.88,2.88,0,0,0-1.85-.72,1.83,1.83,0,0,0-1,.25.83.83,0,0,0-.36.7.8.8,0,0,0,.23.6,1.51,1.51,0,0,0,.73.34l1,.26a2.64,2.64,0,0,1,1.27.6,1.45,1.45,0,0,1,.41,1.06,1.48,1.48,0,0,1-.65,1.27,2.86,2.86,0,0,1-1.75.47,3.55,3.55,0,0,1-2.44-.79"/><path class="cls-3" d="M232.48,94.15v6.12h-1V99.21a2,2,0,0,1-.82.85,2.3,2.3,0,0,1-1.18.29,2.13,2.13,0,0,1-1.64-.6,2.61,2.61,0,0,1-.56-1.81V94.15h1v3.77a1.81,1.81,0,0,0,.34,1.22,1.28,1.28,0,0,0,1,.39A1.76,1.76,0,0,0,231,99a2,2,0,0,0,.5-1.4V94.15Z"/><rect class="cls-3" x="234.99" y="91.31" width="0.99" height="8.96"/><path class="cls-3" d="M239.81,94.93v3.34a1.3,1.3,0,0,0,.28,1,1.08,1.08,0,0,0,.79.27,1.83,1.83,0,0,0,.66-.11v.84a2.88,2.88,0,0,1-.86.12,1.81,1.81,0,0,1-1.36-.49,2,2,0,0,1-.5-1.45V94.93h-1.19v-.78h1.19V92.58l1-.35v1.92h1.75v.78Z"/><path class="cls-3" d="M243.36,94.15h1v6.12h-1Zm1.11-1.47h-1.2V91.56h1.2Z"/><path class="cls-3" d="M252.13,96.42v3.85h-1v-3.8a1.94,1.94,0,0,0-.34-1.25,1.36,1.36,0,0,0-1.07-.39,1.82,1.82,0,0,0-1.37.52,1.94,1.94,0,0,0-.51,1.41v3.51h-1v-4.4a14.64,14.64,0,0,0-.1-1.72h.94l.1,1.09a2,2,0,0,1,.83-.91,2.49,2.49,0,0,1,1.28-.33c1.47,0,2.21.81,2.21,2.42"/><path class="cls-3" d="M258.56,98.67a2.46,2.46,0,0,0,.5-1.63,2.43,2.43,0,0,0-.5-1.62,2,2,0,0,0-2.81,0,2.34,2.34,0,0,0-.52,1.62,2.36,2.36,0,0,0,.52,1.63,2,2,0,0,0,2.81,0m1.49-4.52v6.07a2.46,2.46,0,0,1-2.77,2.76,4.49,4.49,0,0,1-2.41-.63l.17-.8a4.66,4.66,0,0,0,1.11.47,4,4,0,0,0,1.13.15,1.77,1.77,0,0,0,1.34-.47,1.94,1.94,0,0,0,.45-1.39V98.86a2.07,2.07,0,0,1-.82.91,2.51,2.51,0,0,1-1.28.32,2.73,2.73,0,0,1-1.43-.38,2.52,2.52,0,0,1-1-1.07,3.55,3.55,0,0,1-.34-1.6,3.51,3.51,0,0,1,.34-1.59,2.52,2.52,0,0,1,1-1.07A2.73,2.73,0,0,1,257,94a2.49,2.49,0,0,1,1.27.32,2.08,2.08,0,0,1,.82.89V94.15Z"/><path class="cls-3" d="M270.3,98.67a2.41,2.41,0,0,0,.51-1.63,2.38,2.38,0,0,0-.51-1.62,1.75,1.75,0,0,0-1.4-.59,1.78,1.78,0,0,0-1.41.59A2.34,2.34,0,0,0,267,97a2.36,2.36,0,0,0,.52,1.63,1.78,1.78,0,0,0,1.41.59,1.75,1.75,0,0,0,1.4-.59m1.49-4.52v6.07a2.76,2.76,0,0,1-.7,2.06,2.79,2.79,0,0,1-2.06.7,4.44,4.44,0,0,1-2.41-.63l.17-.8a4.6,4.6,0,0,0,1.1.47,4,4,0,0,0,1.14.15,1.79,1.79,0,0,0,1.34-.47,1.94,1.94,0,0,0,.45-1.39V98.86a2.09,2.09,0,0,1-.83.91,2.51,2.51,0,0,1-1.28.32,2.73,2.73,0,0,1-1.43-.38,2.52,2.52,0,0,1-1-1.07A3.69,3.69,0,0,1,266,97a3.65,3.65,0,0,1,.34-1.59,2.52,2.52,0,0,1,1-1.07,2.73,2.73,0,0,1,1.43-.38,2.47,2.47,0,0,1,1.27.32,2.1,2.1,0,0,1,.83.89V94.15Z"/><path class="cls-3" d="M277.7,94.08l0,.9a1.85,1.85,0,0,0-.65-.1,1.57,1.57,0,0,0-1.32.55,2.18,2.18,0,0,0-.43,1.35v3.49h-1V95.86a14.73,14.73,0,0,0-.09-1.71h.93l.1,1.13a1.92,1.92,0,0,1,.74-1,2.15,2.15,0,0,1,1.17-.33,1.94,1.94,0,0,1,.56.08"/><path class="cls-3" d="M283.12,98.94a2.77,2.77,0,0,0,.49-1.76,2.71,2.71,0,0,0-.5-1.74,1.9,1.9,0,0,0-2.79,0,3.34,3.34,0,0,0,0,3.5,1.72,1.72,0,0,0,1.41.6,1.7,1.7,0,0,0,1.4-.6m-2.92,1a2.61,2.61,0,0,1-1-1.11,4.1,4.1,0,0,1,0-3.36,2.61,2.61,0,0,1,1-1.11,3.16,3.16,0,0,1,3,0,2.61,2.61,0,0,1,1,1.11,4.1,4.1,0,0,1,0,3.36,2.61,2.61,0,0,1-1,1.11,3.23,3.23,0,0,1-3,0"/><path class="cls-3" d="M291.88,94.15v6.12h-1V99.21a2,2,0,0,1-.82.85,2.3,2.3,0,0,1-1.18.29,2.13,2.13,0,0,1-1.64-.6,2.61,2.61,0,0,1-.56-1.81V94.15h1v3.77a1.81,1.81,0,0,0,.34,1.22,1.28,1.28,0,0,0,1,.39A1.76,1.76,0,0,0,290.4,99a2,2,0,0,0,.5-1.4V94.15Z"/><path class="cls-3" d="M298.65,98.93a2.66,2.66,0,0,0,.5-1.73,2.73,2.73,0,0,0-.5-1.74,1.88,1.88,0,0,0-2.79,0,2.73,2.73,0,0,0-.49,1.74,2.77,2.77,0,0,0,.49,1.74,1.89,1.89,0,0,0,2.79,0m.22-4.53a2.73,2.73,0,0,1,1,1.13,3.83,3.83,0,0,1,.34,1.67,3.73,3.73,0,0,1-.34,1.66,2.5,2.5,0,0,1-2.39,1.49,2.42,2.42,0,0,1-1.25-.31,2,2,0,0,1-.82-.9v3.76h-1v-7a14.59,14.59,0,0,0-.1-1.71h.94l.1,1.18a1.91,1.91,0,0,1,.81-1,2.38,2.38,0,0,1,1.3-.35,2.65,2.65,0,0,1,1.43.4"/></svg>